<mxfile host="Electron" modified="2024-01-13T08:45:46.356Z" agent="Mozilla/5.0 (Windows NT 10.0; Win64; x64) AppleWebKit/537.36 (KHTML, like Gecko) draw.io/22.1.16 Chrome/120.0.6099.109 Electron/28.1.0 Safari/537.36" etag="Fz74yB-XkTl0X5PMzKay" version="22.1.16" type="device">
  <diagram id="R2lEEEUBdFMjLlhIrx00" name="Page-1">
    <mxGraphModel dx="862" dy="506" grid="1" gridSize="10" guides="1" tooltips="1" connect="1" arrows="1" fold="1" page="1" pageScale="1" pageWidth="850" pageHeight="1100" math="0" shadow="0" extFonts="Permanent Marker^https://fonts.googleapis.com/css?family=Permanent+Marker">
      <root>
        <mxCell id="0" />
        <mxCell id="1" parent="0" />
        <mxCell id="KayYWZ8XLClYaG1VSIAU-1" value="utente" style="whiteSpace=wrap;html=1;align=center;" parent="1" vertex="1">
          <mxGeometry x="560" y="294.39" width="100" height="40" as="geometry" />
        </mxCell>
        <mxCell id="KayYWZ8XLClYaG1VSIAU-3" value="gruppo" style="whiteSpace=wrap;html=1;align=center;" parent="1" vertex="1">
          <mxGeometry x="690" y="600" width="100" height="40" as="geometry" />
        </mxCell>
        <mxCell id="KayYWZ8XLClYaG1VSIAU-7" value="&lt;u&gt;password&lt;/u&gt;" style="ellipse;whiteSpace=wrap;html=1;align=center;" parent="1" vertex="1">
          <mxGeometry x="620" y="30" width="100" height="40" as="geometry" />
        </mxCell>
        <mxCell id="KayYWZ8XLClYaG1VSIAU-8" value="credenziali" style="ellipse;whiteSpace=wrap;html=1;align=center;fontStyle=4;" parent="1" vertex="1">
          <mxGeometry x="490" y="69.99999999999997" width="100" height="40" as="geometry" />
        </mxCell>
        <mxCell id="KayYWZ8XLClYaG1VSIAU-9" value="&lt;u&gt;nickname&lt;/u&gt;" style="ellipse;whiteSpace=wrap;html=1;align=center;" parent="1" vertex="1">
          <mxGeometry x="390" y="30" width="100" height="40" as="geometry" />
        </mxCell>
        <mxCell id="KayYWZ8XLClYaG1VSIAU-10" value="bio" style="ellipse;whiteSpace=wrap;html=1;align=center;" parent="1" vertex="1">
          <mxGeometry x="210" y="203.16999999999996" width="100" height="40" as="geometry" />
        </mxCell>
        <mxCell id="KayYWZ8XLClYaG1VSIAU-11" value="num_pubblicazioni" style="ellipse;whiteSpace=wrap;html=1;align=center;" parent="1" vertex="1">
          <mxGeometry x="230" y="145.60999999999999" width="100" height="40" as="geometry" />
        </mxCell>
        <mxCell id="KayYWZ8XLClYaG1VSIAU-17" value="" style="endArrow=none;html=1;rounded=0;entryX=0;entryY=0.75;entryDx=0;entryDy=0;exitX=1;exitY=0.5;exitDx=0;exitDy=0;" parent="1" source="KayYWZ8XLClYaG1VSIAU-10" target="KayYWZ8XLClYaG1VSIAU-1" edge="1">
          <mxGeometry relative="1" as="geometry">
            <mxPoint x="440" y="354.39" as="sourcePoint" />
            <mxPoint x="600" y="354.39" as="targetPoint" />
          </mxGeometry>
        </mxCell>
        <mxCell id="KayYWZ8XLClYaG1VSIAU-18" value="" style="endArrow=none;html=1;rounded=0;entryX=0;entryY=0.5;entryDx=0;entryDy=0;exitX=1;exitY=0.5;exitDx=0;exitDy=0;" parent="1" source="KayYWZ8XLClYaG1VSIAU-11" target="KayYWZ8XLClYaG1VSIAU-1" edge="1">
          <mxGeometry relative="1" as="geometry">
            <mxPoint x="450" y="323.39" as="sourcePoint" />
            <mxPoint x="590" y="323.39" as="targetPoint" />
          </mxGeometry>
        </mxCell>
        <mxCell id="KayYWZ8XLClYaG1VSIAU-20" value="" style="endArrow=none;html=1;rounded=0;entryX=0;entryY=0;entryDx=0;entryDy=0;exitX=1;exitY=1;exitDx=0;exitDy=0;" parent="1" source="KayYWZ8XLClYaG1VSIAU-8" target="KayYWZ8XLClYaG1VSIAU-1" edge="1">
          <mxGeometry relative="1" as="geometry">
            <mxPoint x="560" y="244.39" as="sourcePoint" />
            <mxPoint x="720" y="244.39" as="targetPoint" />
          </mxGeometry>
        </mxCell>
        <mxCell id="KayYWZ8XLClYaG1VSIAU-21" value="" style="endArrow=none;html=1;rounded=0;exitX=1;exitY=1;exitDx=0;exitDy=0;entryX=0;entryY=0;entryDx=0;entryDy=0;" parent="1" source="KayYWZ8XLClYaG1VSIAU-9" target="KayYWZ8XLClYaG1VSIAU-8" edge="1">
          <mxGeometry relative="1" as="geometry">
            <mxPoint x="330" y="238.77999999999997" as="sourcePoint" />
            <mxPoint x="420" y="268.78" as="targetPoint" />
          </mxGeometry>
        </mxCell>
        <mxCell id="KayYWZ8XLClYaG1VSIAU-22" value="" style="endArrow=none;html=1;rounded=0;entryX=0;entryY=1;entryDx=0;entryDy=0;exitX=0.5;exitY=0;exitDx=0;exitDy=0;" parent="1" source="KayYWZ8XLClYaG1VSIAU-8" target="KayYWZ8XLClYaG1VSIAU-7" edge="1">
          <mxGeometry relative="1" as="geometry">
            <mxPoint x="450" y="268.78" as="sourcePoint" />
            <mxPoint x="404.64466094067257" y="232.92213562373104" as="targetPoint" />
          </mxGeometry>
        </mxCell>
        <mxCell id="KayYWZ8XLClYaG1VSIAU-23" value="num_gruppi" style="ellipse;whiteSpace=wrap;html=1;align=center;dashed=1;" parent="1" vertex="1">
          <mxGeometry x="340" y="129.99999999999997" width="100" height="40" as="geometry" />
        </mxCell>
        <mxCell id="KayYWZ8XLClYaG1VSIAU-24" value="" style="endArrow=none;html=1;rounded=0;entryX=0;entryY=0;entryDx=0;entryDy=0;exitX=1;exitY=0.5;exitDx=0;exitDy=0;" parent="1" source="KayYWZ8XLClYaG1VSIAU-23" target="KayYWZ8XLClYaG1VSIAU-1" edge="1">
          <mxGeometry relative="1" as="geometry">
            <mxPoint x="380" y="294.39" as="sourcePoint" />
            <mxPoint x="540" y="294.39" as="targetPoint" />
          </mxGeometry>
        </mxCell>
        <mxCell id="KayYWZ8XLClYaG1VSIAU-28" style="edgeStyle=orthogonalEdgeStyle;shape=link;rounded=0;orthogonalLoop=1;jettySize=auto;html=1;exitX=0.5;exitY=0;exitDx=0;exitDy=0;entryX=0.75;entryY=1;entryDx=0;entryDy=0;" parent="1" source="KayYWZ8XLClYaG1VSIAU-25" target="KayYWZ8XLClYaG1VSIAU-1" edge="1">
          <mxGeometry relative="1" as="geometry">
            <Array as="points">
              <mxPoint x="635" y="404.39" />
            </Array>
          </mxGeometry>
        </mxCell>
        <mxCell id="KayYWZ8XLClYaG1VSIAU-25" value="partecipa" style="shape=rhombus;perimeter=rhombusPerimeter;whiteSpace=wrap;html=1;align=center;" parent="1" vertex="1">
          <mxGeometry x="630" y="434.39" width="120" height="60" as="geometry" />
        </mxCell>
        <mxCell id="KayYWZ8XLClYaG1VSIAU-27" value="" style="endArrow=none;html=1;rounded=0;exitX=0.5;exitY=0;exitDx=0;exitDy=0;entryX=0.5;entryY=1;entryDx=0;entryDy=0;" parent="1" source="KayYWZ8XLClYaG1VSIAU-3" target="KayYWZ8XLClYaG1VSIAU-25" edge="1">
          <mxGeometry relative="1" as="geometry">
            <mxPoint x="675" y="373.89" as="sourcePoint" />
            <mxPoint x="835" y="373.89" as="targetPoint" />
          </mxGeometry>
        </mxCell>
        <mxCell id="KayYWZ8XLClYaG1VSIAU-34" value="lascia" style="shape=rhombus;perimeter=rhombusPerimeter;whiteSpace=wrap;html=1;align=center;" parent="1" vertex="1">
          <mxGeometry x="810" y="244.39" width="120" height="60" as="geometry" />
        </mxCell>
        <mxCell id="KayYWZ8XLClYaG1VSIAU-35" value="" style="endArrow=none;html=1;rounded=0;shape=link;entryX=0;entryY=0.75;entryDx=0;entryDy=0;exitX=1;exitY=0;exitDx=0;exitDy=0;" parent="1" source="KayYWZ8XLClYaG1VSIAU-34" edge="1">
          <mxGeometry relative="1" as="geometry">
            <mxPoint x="870" y="223.89" as="sourcePoint" />
            <mxPoint x="1010" y="224.39" as="targetPoint" />
          </mxGeometry>
        </mxCell>
        <mxCell id="KayYWZ8XLClYaG1VSIAU-129" value="(1,N)" style="edgeLabel;html=1;align=center;verticalAlign=middle;resizable=0;points=[];" parent="KayYWZ8XLClYaG1VSIAU-35" vertex="1" connectable="0">
          <mxGeometry x="-0.0582" y="3" relative="1" as="geometry">
            <mxPoint x="-11" y="-6" as="offset" />
          </mxGeometry>
        </mxCell>
        <mxCell id="KayYWZ8XLClYaG1VSIAU-36" value="" style="endArrow=none;html=1;rounded=0;exitX=1;exitY=0;exitDx=0;exitDy=0;entryX=0;entryY=0.5;entryDx=0;entryDy=0;" parent="1" source="KayYWZ8XLClYaG1VSIAU-1" target="KayYWZ8XLClYaG1VSIAU-34" edge="1">
          <mxGeometry relative="1" as="geometry">
            <mxPoint x="640" y="263.89" as="sourcePoint" />
            <mxPoint x="800" y="263.89" as="targetPoint" />
          </mxGeometry>
        </mxCell>
        <mxCell id="KayYWZ8XLClYaG1VSIAU-128" value="(0,1)" style="edgeLabel;html=1;align=center;verticalAlign=middle;resizable=0;points=[];" parent="KayYWZ8XLClYaG1VSIAU-36" vertex="1" connectable="0">
          <mxGeometry x="0.0515" y="7" relative="1" as="geometry">
            <mxPoint x="2" y="-2" as="offset" />
          </mxGeometry>
        </mxCell>
        <mxCell id="KayYWZ8XLClYaG1VSIAU-37" style="edgeStyle=orthogonalEdgeStyle;shape=link;rounded=0;orthogonalLoop=1;jettySize=auto;html=1;exitX=0.5;exitY=1;exitDx=0;exitDy=0;" parent="1" edge="1">
          <mxGeometry relative="1" as="geometry">
            <mxPoint x="1430" y="374.39" as="sourcePoint" />
            <mxPoint x="1430" y="374.39" as="targetPoint" />
          </mxGeometry>
        </mxCell>
        <mxCell id="KayYWZ8XLClYaG1VSIAU-38" value="&lt;u&gt;data_recensione&lt;/u&gt;" style="ellipse;whiteSpace=wrap;html=1;align=center;" parent="1" vertex="1">
          <mxGeometry x="940" y="284.39" width="90" height="30" as="geometry" />
        </mxCell>
        <mxCell id="KayYWZ8XLClYaG1VSIAU-39" value="&lt;u&gt;orario_recensione&lt;/u&gt;" style="ellipse;whiteSpace=wrap;html=1;align=center;" parent="1" vertex="1">
          <mxGeometry x="1060" y="284.39" width="100" height="30" as="geometry" />
        </mxCell>
        <mxCell id="KayYWZ8XLClYaG1VSIAU-40" value="" style="endArrow=none;html=1;rounded=0;exitX=1;exitY=1;exitDx=0;exitDy=0;entryX=0.25;entryY=0;entryDx=0;entryDy=0;" parent="1" source="KayYWZ8XLClYaG1VSIAU-38" target="KayYWZ8XLClYaG1VSIAU-48" edge="1">
          <mxGeometry relative="1" as="geometry">
            <mxPoint x="996.8198051533946" y="169.99660171779817" as="sourcePoint" />
            <mxPoint x="1035" y="194.39" as="targetPoint" />
          </mxGeometry>
        </mxCell>
        <mxCell id="KayYWZ8XLClYaG1VSIAU-41" value="" style="endArrow=none;html=1;rounded=0;entryX=0;entryY=1;entryDx=0;entryDy=0;exitX=0.75;exitY=0;exitDx=0;exitDy=0;" parent="1" source="KayYWZ8XLClYaG1VSIAU-48" target="KayYWZ8XLClYaG1VSIAU-39" edge="1">
          <mxGeometry relative="1" as="geometry">
            <mxPoint x="1060" y="194.39" as="sourcePoint" />
            <mxPoint x="1094.6446609406728" y="169.99660171779817" as="targetPoint" />
          </mxGeometry>
        </mxCell>
        <mxCell id="KayYWZ8XLClYaG1VSIAU-43" value="relativa_a" style="shape=rhombus;perimeter=rhombusPerimeter;whiteSpace=wrap;html=1;align=center;rotation=30;" parent="1" vertex="1">
          <mxGeometry x="1200" y="234.39" width="120" height="60" as="geometry" />
        </mxCell>
        <mxCell id="KayYWZ8XLClYaG1VSIAU-46" value="" style="endArrow=none;html=1;rounded=0;entryX=0;entryY=0.5;entryDx=0;entryDy=0;" parent="1" target="KayYWZ8XLClYaG1VSIAU-43" edge="1">
          <mxGeometry relative="1" as="geometry">
            <mxPoint x="1110" y="233.89" as="sourcePoint" />
            <mxPoint x="1270" y="233.89" as="targetPoint" />
          </mxGeometry>
        </mxCell>
        <mxCell id="KayYWZ8XLClYaG1VSIAU-130" value="(1,N)" style="edgeLabel;html=1;align=center;verticalAlign=middle;resizable=0;points=[];" parent="KayYWZ8XLClYaG1VSIAU-46" vertex="1" connectable="0">
          <mxGeometry x="-0.3473" y="1" relative="1" as="geometry">
            <mxPoint as="offset" />
          </mxGeometry>
        </mxCell>
        <mxCell id="KayYWZ8XLClYaG1VSIAU-47" value="" style="endArrow=none;html=1;rounded=0;entryX=0;entryY=0.25;entryDx=0;entryDy=0;exitX=0.957;exitY=0.55;exitDx=0;exitDy=0;exitPerimeter=0;" parent="1" source="KayYWZ8XLClYaG1VSIAU-43" edge="1">
          <mxGeometry relative="1" as="geometry">
            <mxPoint x="1260" y="333.39" as="sourcePoint" />
            <mxPoint x="1380" y="344.39" as="targetPoint" />
          </mxGeometry>
        </mxCell>
        <mxCell id="KayYWZ8XLClYaG1VSIAU-131" value="(1,1)" style="edgeLabel;html=1;align=center;verticalAlign=middle;resizable=0;points=[];" parent="KayYWZ8XLClYaG1VSIAU-47" vertex="1" connectable="0">
          <mxGeometry x="-0.1365" y="-2" relative="1" as="geometry">
            <mxPoint y="-1" as="offset" />
          </mxGeometry>
        </mxCell>
        <mxCell id="KayYWZ8XLClYaG1VSIAU-48" value="recensione" style="shape=ext;margin=3;double=1;whiteSpace=wrap;html=1;align=center;" parent="1" vertex="1">
          <mxGeometry x="1010" y="204.39" width="100" height="40" as="geometry" />
        </mxCell>
        <mxCell id="KayYWZ8XLClYaG1VSIAU-50" value="pubblica" style="shape=rhombus;perimeter=rhombusPerimeter;whiteSpace=wrap;html=1;align=center;" parent="1" vertex="1">
          <mxGeometry x="960" y="324.39" width="120" height="60" as="geometry" />
        </mxCell>
        <mxCell id="KayYWZ8XLClYaG1VSIAU-51" value="" style="endArrow=none;html=1;rounded=0;entryX=0;entryY=0.5;entryDx=0;entryDy=0;shape=link;" parent="1" target="KayYWZ8XLClYaG1VSIAU-50" edge="1">
          <mxGeometry relative="1" as="geometry">
            <mxPoint x="660" y="323.39" as="sourcePoint" />
            <mxPoint x="820" y="323.39" as="targetPoint" />
          </mxGeometry>
        </mxCell>
        <mxCell id="KayYWZ8XLClYaG1VSIAU-121" value="(1,1)" style="edgeLabel;html=1;align=center;verticalAlign=middle;resizable=0;points=[];" parent="KayYWZ8XLClYaG1VSIAU-51" vertex="1" connectable="0">
          <mxGeometry x="-0.034" y="1" relative="1" as="geometry">
            <mxPoint x="15" y="-13" as="offset" />
          </mxGeometry>
        </mxCell>
        <mxCell id="KayYWZ8XLClYaG1VSIAU-53" value="inviata_a" style="shape=rhombus;perimeter=rhombusPerimeter;whiteSpace=wrap;html=1;align=center;" parent="1" vertex="1">
          <mxGeometry x="850" y="414.39" width="120" height="60" as="geometry" />
        </mxCell>
        <mxCell id="KayYWZ8XLClYaG1VSIAU-54" value="" style="endArrow=none;html=1;rounded=0;entryX=0;entryY=0.25;entryDx=0;entryDy=0;exitX=1;exitY=0.5;exitDx=0;exitDy=0;shape=link;" parent="1" source="KayYWZ8XLClYaG1VSIAU-53" edge="1">
          <mxGeometry relative="1" as="geometry">
            <mxPoint x="960" y="443.89" as="sourcePoint" />
            <mxPoint x="1070" y="514.39" as="targetPoint" />
          </mxGeometry>
        </mxCell>
        <mxCell id="KayYWZ8XLClYaG1VSIAU-55" value="" style="endArrow=none;html=1;rounded=0;entryX=0;entryY=0.5;entryDx=0;entryDy=0;exitX=1;exitY=1;exitDx=0;exitDy=0;" parent="1" source="KayYWZ8XLClYaG1VSIAU-1" target="KayYWZ8XLClYaG1VSIAU-53" edge="1">
          <mxGeometry relative="1" as="geometry">
            <mxPoint x="715" y="383.39" as="sourcePoint" />
            <mxPoint x="875" y="383.39" as="targetPoint" />
          </mxGeometry>
        </mxCell>
        <mxCell id="KayYWZ8XLClYaG1VSIAU-56" value="invia" style="shape=rhombus;perimeter=rhombusPerimeter;whiteSpace=wrap;html=1;align=center;" parent="1" vertex="1">
          <mxGeometry x="820" y="524.39" width="120" height="60" as="geometry" />
        </mxCell>
        <mxCell id="KayYWZ8XLClYaG1VSIAU-57" value="" style="endArrow=none;html=1;rounded=0;entryX=0;entryY=0.5;entryDx=0;entryDy=0;exitX=1;exitY=0.5;exitDx=0;exitDy=0;" parent="1" source="KayYWZ8XLClYaG1VSIAU-3" target="KayYWZ8XLClYaG1VSIAU-56" edge="1">
          <mxGeometry relative="1" as="geometry">
            <mxPoint x="710" y="573.89" as="sourcePoint" />
            <mxPoint x="870" y="573.89" as="targetPoint" />
          </mxGeometry>
        </mxCell>
        <mxCell id="KayYWZ8XLClYaG1VSIAU-116" value="(1,N)" style="edgeLabel;html=1;align=center;verticalAlign=middle;resizable=0;points=[];" parent="KayYWZ8XLClYaG1VSIAU-57" vertex="1" connectable="0">
          <mxGeometry x="0.1641" relative="1" as="geometry">
            <mxPoint x="-4" y="-8" as="offset" />
          </mxGeometry>
        </mxCell>
        <mxCell id="KayYWZ8XLClYaG1VSIAU-58" value="" style="endArrow=none;html=1;rounded=0;exitX=1;exitY=0.5;exitDx=0;exitDy=0;shape=link;" parent="1" source="KayYWZ8XLClYaG1VSIAU-56" edge="1">
          <mxGeometry relative="1" as="geometry">
            <mxPoint x="910" y="534.39" as="sourcePoint" />
            <mxPoint x="1070" y="534.39" as="targetPoint" />
          </mxGeometry>
        </mxCell>
        <mxCell id="KayYWZ8XLClYaG1VSIAU-117" value="(1,N)" style="edgeLabel;html=1;align=center;verticalAlign=middle;resizable=0;points=[];" parent="KayYWZ8XLClYaG1VSIAU-58" vertex="1" connectable="0">
          <mxGeometry x="-0.2197" y="-2" relative="1" as="geometry">
            <mxPoint x="-11" y="-14" as="offset" />
          </mxGeometry>
        </mxCell>
        <mxCell id="KayYWZ8XLClYaG1VSIAU-60" value="relativa_a" style="shape=rhombus;perimeter=rhombusPerimeter;whiteSpace=wrap;html=1;align=center;" parent="1" vertex="1">
          <mxGeometry x="1200" y="464.39" width="120" height="60" as="geometry" />
        </mxCell>
        <mxCell id="KayYWZ8XLClYaG1VSIAU-61" value="" style="endArrow=none;html=1;rounded=0;entryX=0.092;entryY=0.567;entryDx=0;entryDy=0;exitX=1;exitY=0;exitDx=0;exitDy=0;shape=link;entryPerimeter=0;" parent="1" target="KayYWZ8XLClYaG1VSIAU-60" edge="1">
          <mxGeometry relative="1" as="geometry">
            <mxPoint x="1170" y="504.39" as="sourcePoint" />
            <mxPoint x="1400" y="544.39" as="targetPoint" />
          </mxGeometry>
        </mxCell>
        <mxCell id="KayYWZ8XLClYaG1VSIAU-62" value="" style="endArrow=none;html=1;rounded=0;entryX=1;entryY=0.5;entryDx=0;entryDy=0;exitX=0.5;exitY=1;exitDx=0;exitDy=0;" parent="1" target="KayYWZ8XLClYaG1VSIAU-60" edge="1">
          <mxGeometry relative="1" as="geometry">
            <mxPoint x="1390" y="384.39" as="sourcePoint" />
            <mxPoint x="1150" y="384.39" as="targetPoint" />
          </mxGeometry>
        </mxCell>
        <mxCell id="KayYWZ8XLClYaG1VSIAU-63" value="&lt;u&gt;nome_gruppo&lt;/u&gt;" style="ellipse;whiteSpace=wrap;html=1;align=center;" parent="1" vertex="1">
          <mxGeometry x="420" y="730" width="100" height="40" as="geometry" />
        </mxCell>
        <mxCell id="KayYWZ8XLClYaG1VSIAU-64" value="descrizione" style="ellipse;whiteSpace=wrap;html=1;align=center;" parent="1" vertex="1">
          <mxGeometry x="480" y="804.39" width="100" height="40" as="geometry" />
        </mxCell>
        <mxCell id="KayYWZ8XLClYaG1VSIAU-67" value="" style="endArrow=none;html=1;rounded=0;exitX=1;exitY=0;exitDx=0;exitDy=0;entryX=0;entryY=1;entryDx=0;entryDy=0;" parent="1" source="KayYWZ8XLClYaG1VSIAU-63" target="KayYWZ8XLClYaG1VSIAU-3" edge="1">
          <mxGeometry relative="1" as="geometry">
            <mxPoint x="460" y="604.39" as="sourcePoint" />
            <mxPoint x="620" y="604.39" as="targetPoint" />
          </mxGeometry>
        </mxCell>
        <mxCell id="KayYWZ8XLClYaG1VSIAU-68" value="" style="endArrow=none;html=1;rounded=0;entryX=0.25;entryY=1;entryDx=0;entryDy=0;exitX=0.5;exitY=0;exitDx=0;exitDy=0;" parent="1" source="KayYWZ8XLClYaG1VSIAU-64" target="KayYWZ8XLClYaG1VSIAU-3" edge="1">
          <mxGeometry relative="1" as="geometry">
            <mxPoint x="610" y="634.39" as="sourcePoint" />
            <mxPoint x="770" y="634.39" as="targetPoint" />
          </mxGeometry>
        </mxCell>
        <mxCell id="KayYWZ8XLClYaG1VSIAU-70" value="" style="endArrow=none;html=1;rounded=0;exitX=0.5;exitY=1;exitDx=0;exitDy=0;entryX=0.5;entryY=0;entryDx=0;entryDy=0;" parent="1" source="KayYWZ8XLClYaG1VSIAU-3" edge="1">
          <mxGeometry relative="1" as="geometry">
            <mxPoint x="645" y="634.39" as="sourcePoint" />
            <mxPoint x="640" y="714.39" as="targetPoint" />
          </mxGeometry>
        </mxCell>
        <mxCell id="KayYWZ8XLClYaG1VSIAU-71" value="" style="endArrow=none;html=1;rounded=0;exitX=0.75;exitY=1;exitDx=0;exitDy=0;entryX=0.5;entryY=0;entryDx=0;entryDy=0;" parent="1" source="KayYWZ8XLClYaG1VSIAU-3" target="KayYWZ8XLClYaG1VSIAU-73" edge="1">
          <mxGeometry relative="1" as="geometry">
            <mxPoint x="660" y="644.39" as="sourcePoint" />
            <mxPoint x="755" y="714.39" as="targetPoint" />
            <Array as="points" />
          </mxGeometry>
        </mxCell>
        <mxCell id="KayYWZ8XLClYaG1VSIAU-72" value="&lt;u&gt;tag&lt;/u&gt;" style="ellipse;shape=doubleEllipse;margin=3;whiteSpace=wrap;html=1;align=center;" parent="1" vertex="1">
          <mxGeometry x="580" y="704.39" width="100" height="40" as="geometry" />
        </mxCell>
        <mxCell id="KayYWZ8XLClYaG1VSIAU-73" value="numero_utenti" style="ellipse;whiteSpace=wrap;html=1;align=center;dashed=1;" parent="1" vertex="1">
          <mxGeometry x="690" y="724.39" width="100" height="40" as="geometry" />
        </mxCell>
        <mxCell id="KayYWZ8XLClYaG1VSIAU-74" value="notifica" style="shape=ext;margin=3;double=1;whiteSpace=wrap;html=1;align=center;" parent="1" vertex="1">
          <mxGeometry x="1070" y="504.39" width="100" height="40" as="geometry" />
        </mxCell>
        <mxCell id="KayYWZ8XLClYaG1VSIAU-75" value="post" style="whiteSpace=wrap;html=1;align=center;" parent="1" vertex="1">
          <mxGeometry x="1330" y="344.39" width="100" height="40" as="geometry" />
        </mxCell>
        <mxCell id="KayYWZ8XLClYaG1VSIAU-76" value="data_creazione" style="ellipse;whiteSpace=wrap;html=1;align=center;" parent="1" vertex="1">
          <mxGeometry x="300" y="760" width="100" height="40" as="geometry" />
        </mxCell>
        <mxCell id="KayYWZ8XLClYaG1VSIAU-77" value="" style="endArrow=none;html=1;rounded=0;entryX=1;entryY=0.5;entryDx=0;entryDy=0;exitX=0;exitY=0.5;exitDx=0;exitDy=0;" parent="1" source="KayYWZ8XLClYaG1VSIAU-3" target="KayYWZ8XLClYaG1VSIAU-76" edge="1">
          <mxGeometry relative="1" as="geometry">
            <mxPoint x="680" y="664.39" as="sourcePoint" />
            <mxPoint x="840" y="664.39" as="targetPoint" />
          </mxGeometry>
        </mxCell>
        <mxCell id="KayYWZ8XLClYaG1VSIAU-79" value="" style="endArrow=none;html=1;rounded=0;entryX=0;entryY=0;entryDx=0;entryDy=0;exitX=1;exitY=1;exitDx=0;exitDy=0;" parent="1" source="KayYWZ8XLClYaG1VSIAU-3" target="KayYWZ8XLClYaG1VSIAU-80" edge="1">
          <mxGeometry relative="1" as="geometry">
            <mxPoint x="680" y="664.39" as="sourcePoint" />
            <mxPoint x="864.6446609406726" y="660.247864376269" as="targetPoint" />
          </mxGeometry>
        </mxCell>
        <mxCell id="KayYWZ8XLClYaG1VSIAU-80" value="numero_post" style="ellipse;whiteSpace=wrap;html=1;align=center;dashed=1;" parent="1" vertex="1">
          <mxGeometry x="800" y="684.39" width="100" height="40" as="geometry" />
        </mxCell>
        <mxCell id="KayYWZ8XLClYaG1VSIAU-81" value="relativo_a" style="shape=rhombus;perimeter=rhombusPerimeter;whiteSpace=wrap;html=1;align=center;" parent="1" vertex="1">
          <mxGeometry x="1190" y="804.39" width="120" height="60" as="geometry" />
        </mxCell>
        <mxCell id="KayYWZ8XLClYaG1VSIAU-82" value="" style="endArrow=none;html=1;rounded=0;exitX=0.5;exitY=1;exitDx=0;exitDy=0;entryX=0;entryY=0.5;entryDx=0;entryDy=0;shape=link;" parent="1" source="KayYWZ8XLClYaG1VSIAU-3" edge="1">
          <mxGeometry relative="1" as="geometry">
            <mxPoint x="690" y="594.39" as="sourcePoint" />
            <mxPoint x="1195" y="834.39" as="targetPoint" />
            <Array as="points">
              <mxPoint x="680" y="844.39" />
            </Array>
          </mxGeometry>
        </mxCell>
        <mxCell id="KayYWZ8XLClYaG1VSIAU-133" value="(1,1)" style="edgeLabel;html=1;align=center;verticalAlign=middle;resizable=0;points=[];" parent="KayYWZ8XLClYaG1VSIAU-82" vertex="1" connectable="0">
          <mxGeometry x="0.4667" y="-5" relative="1" as="geometry">
            <mxPoint as="offset" />
          </mxGeometry>
        </mxCell>
        <mxCell id="KayYWZ8XLClYaG1VSIAU-83" value="" style="endArrow=none;html=1;rounded=0;entryX=0.75;entryY=1;entryDx=0;entryDy=0;exitX=1;exitY=0.5;exitDx=0;exitDy=0;shape=link;" parent="1" source="KayYWZ8XLClYaG1VSIAU-81" target="KayYWZ8XLClYaG1VSIAU-75" edge="1">
          <mxGeometry relative="1" as="geometry">
            <mxPoint x="1300" y="813.89" as="sourcePoint" />
            <mxPoint x="1460" y="813.89" as="targetPoint" />
          </mxGeometry>
        </mxCell>
        <mxCell id="KayYWZ8XLClYaG1VSIAU-132" value="(1,N)" style="edgeLabel;html=1;align=center;verticalAlign=middle;resizable=0;points=[];" parent="KayYWZ8XLClYaG1VSIAU-83" vertex="1" connectable="0">
          <mxGeometry x="0.1104" y="1" relative="1" as="geometry">
            <mxPoint as="offset" />
          </mxGeometry>
        </mxCell>
        <mxCell id="KayYWZ8XLClYaG1VSIAU-91" value="ora_pubblicazione" style="ellipse;whiteSpace=wrap;html=1;align=center;fontStyle=4" parent="1" vertex="1">
          <mxGeometry x="1600" y="384.39" width="100" height="40" as="geometry" />
        </mxCell>
        <mxCell id="KayYWZ8XLClYaG1VSIAU-92" value="" style="endArrow=none;html=1;rounded=0;exitX=1;exitY=0.5;exitDx=0;exitDy=0;entryX=0;entryY=1;entryDx=0;entryDy=0;" parent="1" source="KayYWZ8XLClYaG1VSIAU-75" target="KayYWZ8XLClYaG1VSIAU-91" edge="1">
          <mxGeometry relative="1" as="geometry">
            <mxPoint x="1310" y="274.39" as="sourcePoint" />
            <mxPoint x="1470" y="274.39" as="targetPoint" />
          </mxGeometry>
        </mxCell>
        <mxCell id="KayYWZ8XLClYaG1VSIAU-93" value="" style="endArrow=none;html=1;rounded=0;entryX=0;entryY=0.5;entryDx=0;entryDy=0;" parent="1" target="KayYWZ8XLClYaG1VSIAU-149" edge="1">
          <mxGeometry relative="1" as="geometry">
            <mxPoint x="1430" y="363.89" as="sourcePoint" />
            <mxPoint x="1514" y="316.39" as="targetPoint" />
          </mxGeometry>
        </mxCell>
        <mxCell id="KayYWZ8XLClYaG1VSIAU-94" value="" style="endArrow=none;html=1;rounded=0;exitX=1;exitY=0.75;exitDx=0;exitDy=0;entryX=0;entryY=0.5;entryDx=0;entryDy=0;" parent="1" source="KayYWZ8XLClYaG1VSIAU-75" target="KayYWZ8XLClYaG1VSIAU-148" edge="1">
          <mxGeometry relative="1" as="geometry">
            <mxPoint x="1475" y="434.39" as="sourcePoint" />
            <mxPoint x="1514.6446609406726" y="388.53213562373094" as="targetPoint" />
          </mxGeometry>
        </mxCell>
        <mxCell id="KayYWZ8XLClYaG1VSIAU-95" value="" style="endArrow=none;html=1;rounded=0;exitX=1;exitY=1;exitDx=0;exitDy=0;entryX=0;entryY=0;entryDx=0;entryDy=0;" parent="1" source="KayYWZ8XLClYaG1VSIAU-75" target="KayYWZ8XLClYaG1VSIAU-97" edge="1">
          <mxGeometry relative="1" as="geometry">
            <mxPoint x="1525" y="414.39" as="sourcePoint" />
            <mxPoint x="1494.6446609406726" y="430.2478643762689" as="targetPoint" />
          </mxGeometry>
        </mxCell>
        <mxCell id="KayYWZ8XLClYaG1VSIAU-97" value="data_pubblicazione" style="ellipse;whiteSpace=wrap;html=1;align=center;fontStyle=4" parent="1" vertex="1">
          <mxGeometry x="1420" y="474.39" width="100" height="40" as="geometry" />
        </mxCell>
        <mxCell id="KayYWZ8XLClYaG1VSIAU-99" value="&lt;u&gt;ora_notifica&lt;/u&gt;" style="ellipse;whiteSpace=wrap;html=1;align=center;" parent="1" vertex="1">
          <mxGeometry x="1215" y="414.39" width="100" height="40" as="geometry" />
        </mxCell>
        <mxCell id="KayYWZ8XLClYaG1VSIAU-100" value="data_notifica" style="ellipse;whiteSpace=wrap;html=1;align=center;fontStyle=4" parent="1" vertex="1">
          <mxGeometry x="1045" y="412.39" width="100" height="40" as="geometry" />
        </mxCell>
        <mxCell id="KayYWZ8XLClYaG1VSIAU-101" value="descrizione" style="ellipse;whiteSpace=wrap;html=1;align=center;" parent="1" vertex="1">
          <mxGeometry x="1130" y="372.39" width="100" height="40" as="geometry" />
        </mxCell>
        <mxCell id="KayYWZ8XLClYaG1VSIAU-102" value="" style="endArrow=none;html=1;rounded=0;entryX=0.5;entryY=1;entryDx=0;entryDy=0;exitX=0.25;exitY=0;exitDx=0;exitDy=0;" parent="1" source="KayYWZ8XLClYaG1VSIAU-74" target="KayYWZ8XLClYaG1VSIAU-100" edge="1">
          <mxGeometry relative="1" as="geometry">
            <mxPoint x="1140" y="524.39" as="sourcePoint" />
            <mxPoint x="1300" y="524.39" as="targetPoint" />
          </mxGeometry>
        </mxCell>
        <mxCell id="KayYWZ8XLClYaG1VSIAU-103" value="" style="endArrow=none;html=1;rounded=0;entryX=0.5;entryY=1;entryDx=0;entryDy=0;exitX=0.5;exitY=0;exitDx=0;exitDy=0;" parent="1" source="KayYWZ8XLClYaG1VSIAU-74" target="KayYWZ8XLClYaG1VSIAU-101" edge="1">
          <mxGeometry relative="1" as="geometry">
            <mxPoint x="1140" y="524.39" as="sourcePoint" />
            <mxPoint x="1300" y="524.39" as="targetPoint" />
          </mxGeometry>
        </mxCell>
        <mxCell id="KayYWZ8XLClYaG1VSIAU-104" value="" style="endArrow=none;html=1;rounded=0;entryX=0;entryY=0.5;entryDx=0;entryDy=0;exitX=0.75;exitY=0;exitDx=0;exitDy=0;" parent="1" source="KayYWZ8XLClYaG1VSIAU-74" target="KayYWZ8XLClYaG1VSIAU-99" edge="1">
          <mxGeometry relative="1" as="geometry">
            <mxPoint x="1140" y="524.39" as="sourcePoint" />
            <mxPoint x="1300" y="524.39" as="targetPoint" />
          </mxGeometry>
        </mxCell>
        <mxCell id="KayYWZ8XLClYaG1VSIAU-113" value="(1,N)" style="text;html=1;align=center;verticalAlign=middle;resizable=0;points=[];autosize=1;strokeColor=none;fillColor=none;" parent="1" vertex="1">
          <mxGeometry x="630" y="504.39" width="50" height="30" as="geometry" />
        </mxCell>
        <mxCell id="KayYWZ8XLClYaG1VSIAU-114" value="(1,N)" style="text;html=1;align=center;verticalAlign=middle;resizable=0;points=[];autosize=1;strokeColor=none;fillColor=none;" parent="1" vertex="1">
          <mxGeometry x="645" y="372.39" width="50" height="30" as="geometry" />
        </mxCell>
        <mxCell id="KayYWZ8XLClYaG1VSIAU-118" value="(0,1)" style="text;html=1;align=center;verticalAlign=middle;resizable=0;points=[];autosize=1;strokeColor=none;fillColor=none;" parent="1" vertex="1">
          <mxGeometry x="770" y="374.39" width="50" height="30" as="geometry" />
        </mxCell>
        <mxCell id="KayYWZ8XLClYaG1VSIAU-119" value="(0,1)" style="text;html=1;align=center;verticalAlign=middle;resizable=0;points=[];autosize=1;strokeColor=none;fillColor=none;" parent="1" vertex="1">
          <mxGeometry x="995" y="452.39" width="50" height="30" as="geometry" />
        </mxCell>
        <mxCell id="KayYWZ8XLClYaG1VSIAU-120" value="(1,N)" style="text;html=1;align=center;verticalAlign=middle;resizable=0;points=[];autosize=1;strokeColor=none;fillColor=none;" parent="1" vertex="1">
          <mxGeometry x="1165" y="324.39" width="50" height="30" as="geometry" />
        </mxCell>
        <mxCell id="KayYWZ8XLClYaG1VSIAU-122" value="" style="endArrow=none;html=1;rounded=0;entryX=0;entryY=0.5;entryDx=0;entryDy=0;exitX=1;exitY=0.5;exitDx=0;exitDy=0;" parent="1" source="KayYWZ8XLClYaG1VSIAU-50" target="KayYWZ8XLClYaG1VSIAU-75" edge="1">
          <mxGeometry relative="1" as="geometry">
            <mxPoint x="1080" y="354.39" as="sourcePoint" />
            <mxPoint x="1240" y="354.39" as="targetPoint" />
          </mxGeometry>
        </mxCell>
        <mxCell id="KayYWZ8XLClYaG1VSIAU-135" value="d" style="ellipse;whiteSpace=wrap;html=1;aspect=fixed;" parent="1" vertex="1">
          <mxGeometry x="390.0000000000001" y="344.39" width="35.61" height="35.61" as="geometry" />
        </mxCell>
        <mxCell id="KayYWZ8XLClYaG1VSIAU-137" value="" style="endArrow=none;html=1;rounded=0;entryX=1;entryY=0.5;entryDx=0;entryDy=0;exitX=0.25;exitY=1;exitDx=0;exitDy=0;" parent="1" source="KayYWZ8XLClYaG1VSIAU-1" target="KayYWZ8XLClYaG1VSIAU-135" edge="1">
          <mxGeometry relative="1" as="geometry">
            <mxPoint x="530" y="263.89" as="sourcePoint" />
            <mxPoint x="690" y="263.89" as="targetPoint" />
          </mxGeometry>
        </mxCell>
        <mxCell id="KayYWZ8XLClYaG1VSIAU-139" value="creatore" style="rounded=1;arcSize=10;whiteSpace=wrap;html=1;align=center;" parent="1" vertex="1">
          <mxGeometry x="220" y="390" width="100" height="40" as="geometry" />
        </mxCell>
        <mxCell id="KayYWZ8XLClYaG1VSIAU-140" value="" style="endArrow=none;html=1;rounded=0;exitX=0;exitY=0.5;exitDx=0;exitDy=0;entryX=0.75;entryY=0;entryDx=0;entryDy=0;" parent="1" source="KayYWZ8XLClYaG1VSIAU-135" target="KayYWZ8XLClYaG1VSIAU-139" edge="1">
          <mxGeometry relative="1" as="geometry">
            <mxPoint x="540" y="310" as="sourcePoint" />
            <mxPoint x="700" y="310" as="targetPoint" />
          </mxGeometry>
        </mxCell>
        <mxCell id="KayYWZ8XLClYaG1VSIAU-141" value="d" style="ellipse;whiteSpace=wrap;html=1;aspect=fixed;" parent="1" vertex="1">
          <mxGeometry x="1045" y="109.99999999999999" width="35.61" height="35.61" as="geometry" />
        </mxCell>
        <mxCell id="KayYWZ8XLClYaG1VSIAU-142" value="" style="endArrow=none;html=1;rounded=0;entryX=0.5;entryY=0;entryDx=0;entryDy=0;exitX=0.5;exitY=1;exitDx=0;exitDy=0;shape=link;" parent="1" source="KayYWZ8XLClYaG1VSIAU-141" target="KayYWZ8XLClYaG1VSIAU-48" edge="1">
          <mxGeometry relative="1" as="geometry">
            <mxPoint x="835" y="180" as="sourcePoint" />
            <mxPoint x="995" y="180" as="targetPoint" />
          </mxGeometry>
        </mxCell>
        <mxCell id="KayYWZ8XLClYaG1VSIAU-143" value="like" style="rounded=1;arcSize=10;whiteSpace=wrap;html=1;align=center;" parent="1" vertex="1">
          <mxGeometry x="890" y="50" width="100" height="40" as="geometry" />
        </mxCell>
        <mxCell id="KayYWZ8XLClYaG1VSIAU-144" value="commento" style="rounded=1;arcSize=10;whiteSpace=wrap;html=1;align=center;" parent="1" vertex="1">
          <mxGeometry x="1110" y="50" width="100" height="40" as="geometry" />
        </mxCell>
        <mxCell id="KayYWZ8XLClYaG1VSIAU-146" value="" style="endArrow=none;html=1;rounded=0;entryX=0;entryY=0;entryDx=0;entryDy=0;exitX=1;exitY=1;exitDx=0;exitDy=0;" parent="1" source="KayYWZ8XLClYaG1VSIAU-143" target="KayYWZ8XLClYaG1VSIAU-141" edge="1">
          <mxGeometry relative="1" as="geometry">
            <mxPoint x="880" y="110" as="sourcePoint" />
            <mxPoint x="1040" y="110" as="targetPoint" />
          </mxGeometry>
        </mxCell>
        <mxCell id="KayYWZ8XLClYaG1VSIAU-147" value="" style="endArrow=none;html=1;rounded=0;entryX=1;entryY=0;entryDx=0;entryDy=0;exitX=0.25;exitY=1;exitDx=0;exitDy=0;" parent="1" source="KayYWZ8XLClYaG1VSIAU-144" target="KayYWZ8XLClYaG1VSIAU-141" edge="1">
          <mxGeometry relative="1" as="geometry">
            <mxPoint x="880" y="110" as="sourcePoint" />
            <mxPoint x="1040" y="110" as="targetPoint" />
          </mxGeometry>
        </mxCell>
        <mxCell id="KayYWZ8XLClYaG1VSIAU-148" value="num_commenti" style="ellipse;whiteSpace=wrap;html=1;align=center;dashed=1;" parent="1" vertex="1">
          <mxGeometry x="1530" y="470" width="100" height="40" as="geometry" />
        </mxCell>
        <mxCell id="KayYWZ8XLClYaG1VSIAU-149" value="num_like" style="ellipse;whiteSpace=wrap;html=1;align=center;dashed=1;" parent="1" vertex="1">
          <mxGeometry x="1580" y="430" width="100" height="40" as="geometry" />
        </mxCell>
        <mxCell id="KayYWZ8XLClYaG1VSIAU-150" value="contenuto_testuale" style="ellipse;whiteSpace=wrap;html=1;align=center;" parent="1" vertex="1">
          <mxGeometry x="1240" y="20" width="120" height="40" as="geometry" />
        </mxCell>
        <mxCell id="KayYWZ8XLClYaG1VSIAU-151" value="" style="endArrow=none;html=1;rounded=0;exitX=1;exitY=0.25;exitDx=0;exitDy=0;entryX=0;entryY=0.5;entryDx=0;entryDy=0;" parent="1" source="KayYWZ8XLClYaG1VSIAU-144" target="KayYWZ8XLClYaG1VSIAU-150" edge="1">
          <mxGeometry relative="1" as="geometry">
            <mxPoint x="1100" y="70" as="sourcePoint" />
            <mxPoint x="1260" y="70" as="targetPoint" />
          </mxGeometry>
        </mxCell>
        <mxCell id="KayYWZ8XLClYaG1VSIAU-152" value="d" style="ellipse;whiteSpace=wrap;html=1;aspect=fixed;" parent="1" vertex="1">
          <mxGeometry x="1478.78" y="243.17" width="41.22" height="41.22" as="geometry" />
        </mxCell>
        <mxCell id="KayYWZ8XLClYaG1VSIAU-153" value="" style="endArrow=none;html=1;rounded=0;entryX=1;entryY=0;entryDx=0;entryDy=0;exitX=0;exitY=1;exitDx=0;exitDy=0;shape=link;" parent="1" source="KayYWZ8XLClYaG1VSIAU-152" target="KayYWZ8XLClYaG1VSIAU-75" edge="1">
          <mxGeometry relative="1" as="geometry">
            <mxPoint x="1300" y="360" as="sourcePoint" />
            <mxPoint x="1460" y="360" as="targetPoint" />
          </mxGeometry>
        </mxCell>
        <mxCell id="KayYWZ8XLClYaG1VSIAU-154" style="edgeStyle=none;rounded=0;orthogonalLoop=1;jettySize=auto;html=1;entryX=0;entryY=0;entryDx=0;entryDy=0;" parent="1" source="KayYWZ8XLClYaG1VSIAU-75" target="KayYWZ8XLClYaG1VSIAU-75" edge="1">
          <mxGeometry relative="1" as="geometry" />
        </mxCell>
        <mxCell id="KayYWZ8XLClYaG1VSIAU-155" value="foto" style="rounded=1;arcSize=10;whiteSpace=wrap;html=1;align=center;" parent="1" vertex="1">
          <mxGeometry x="1370" y="130" width="100" height="40" as="geometry" />
        </mxCell>
        <mxCell id="KayYWZ8XLClYaG1VSIAU-156" value="" style="endArrow=none;html=1;rounded=0;entryX=0;entryY=0;entryDx=0;entryDy=0;exitX=0.5;exitY=1;exitDx=0;exitDy=0;" parent="1" source="KayYWZ8XLClYaG1VSIAU-155" target="KayYWZ8XLClYaG1VSIAU-152" edge="1">
          <mxGeometry relative="1" as="geometry">
            <mxPoint x="1300" y="360" as="sourcePoint" />
            <mxPoint x="1460" y="360" as="targetPoint" />
          </mxGeometry>
        </mxCell>
        <mxCell id="KayYWZ8XLClYaG1VSIAU-158" value="contenuto_testuale" style="rounded=1;arcSize=10;whiteSpace=wrap;html=1;align=center;" parent="1" vertex="1">
          <mxGeometry x="1570" y="130" width="100" height="40" as="geometry" />
        </mxCell>
        <mxCell id="KayYWZ8XLClYaG1VSIAU-159" value="" style="endArrow=none;html=1;rounded=0;entryX=1;entryY=0;entryDx=0;entryDy=0;exitX=0.25;exitY=1;exitDx=0;exitDy=0;" parent="1" source="KayYWZ8XLClYaG1VSIAU-158" target="KayYWZ8XLClYaG1VSIAU-152" edge="1">
          <mxGeometry relative="1" as="geometry">
            <mxPoint x="1370" y="220" as="sourcePoint" />
            <mxPoint x="1530" y="220" as="targetPoint" />
          </mxGeometry>
        </mxCell>
        <mxCell id="KayYWZ8XLClYaG1VSIAU-160" value="descrizione" style="ellipse;whiteSpace=wrap;html=1;align=center;" parent="1" vertex="1">
          <mxGeometry x="1260" y="80" width="100" height="40" as="geometry" />
        </mxCell>
        <mxCell id="KayYWZ8XLClYaG1VSIAU-161" value="" style="endArrow=none;html=1;rounded=0;exitX=0.25;exitY=0;exitDx=0;exitDy=0;entryX=0.5;entryY=1;entryDx=0;entryDy=0;" parent="1" source="KayYWZ8XLClYaG1VSIAU-155" target="KayYWZ8XLClYaG1VSIAU-160" edge="1">
          <mxGeometry relative="1" as="geometry">
            <mxPoint x="1370" y="250" as="sourcePoint" />
            <mxPoint x="1530" y="250" as="targetPoint" />
          </mxGeometry>
        </mxCell>
        <mxCell id="KayYWZ8XLClYaG1VSIAU-162" value="contenuto_testuale" style="ellipse;whiteSpace=wrap;html=1;align=center;" parent="1" vertex="1">
          <mxGeometry x="1540" y="50" width="120" height="40" as="geometry" />
        </mxCell>
        <mxCell id="KayYWZ8XLClYaG1VSIAU-163" value="" style="endArrow=none;html=1;rounded=0;entryX=0.25;entryY=0;entryDx=0;entryDy=0;exitX=0.5;exitY=1;exitDx=0;exitDy=0;" parent="1" source="KayYWZ8XLClYaG1VSIAU-162" target="KayYWZ8XLClYaG1VSIAU-158" edge="1">
          <mxGeometry relative="1" as="geometry">
            <mxPoint x="1370" y="250" as="sourcePoint" />
            <mxPoint x="1530" y="250" as="targetPoint" />
          </mxGeometry>
        </mxCell>
        <mxCell id="KayYWZ8XLClYaG1VSIAU-165" value="richiesta_partecipazione" style="shape=ext;margin=3;double=1;whiteSpace=wrap;html=1;align=center;" parent="1" vertex="1">
          <mxGeometry x="345" y="560" width="140" height="40" as="geometry" />
        </mxCell>
        <mxCell id="KayYWZ8XLClYaG1VSIAU-166" value="accetta" style="shape=rhombus;perimeter=rhombusPerimeter;whiteSpace=wrap;html=1;align=center;" parent="1" vertex="1">
          <mxGeometry x="240" y="454.39" width="120" height="60" as="geometry" />
        </mxCell>
        <mxCell id="KayYWZ8XLClYaG1VSIAU-168" value="effettua" style="shape=rhombus;perimeter=rhombusPerimeter;whiteSpace=wrap;html=1;align=center;" parent="1" vertex="1">
          <mxGeometry x="480" y="390" width="120" height="60" as="geometry" />
        </mxCell>
        <mxCell id="KayYWZ8XLClYaG1VSIAU-169" value="" style="endArrow=none;html=1;rounded=0;entryX=0.5;entryY=1;entryDx=0;entryDy=0;exitX=0.5;exitY=0;exitDx=0;exitDy=0;" parent="1" source="KayYWZ8XLClYaG1VSIAU-168" target="KayYWZ8XLClYaG1VSIAU-1" edge="1">
          <mxGeometry relative="1" as="geometry">
            <mxPoint x="540" y="420" as="sourcePoint" />
            <mxPoint x="700" y="420" as="targetPoint" />
          </mxGeometry>
        </mxCell>
        <mxCell id="KayYWZ8XLClYaG1VSIAU-178" value="(" style="edgeLabel;html=1;align=center;verticalAlign=middle;resizable=0;points=[];" parent="KayYWZ8XLClYaG1VSIAU-169" vertex="1" connectable="0">
          <mxGeometry x="0.0831" relative="1" as="geometry">
            <mxPoint as="offset" />
          </mxGeometry>
        </mxCell>
        <mxCell id="KayYWZ8XLClYaG1VSIAU-179" value="(1,1)" style="edgeLabel;html=1;align=center;verticalAlign=middle;resizable=0;points=[];" parent="KayYWZ8XLClYaG1VSIAU-169" vertex="1" connectable="0">
          <mxGeometry x="0.0279" y="-10" relative="1" as="geometry">
            <mxPoint as="offset" />
          </mxGeometry>
        </mxCell>
        <mxCell id="KayYWZ8XLClYaG1VSIAU-170" value="" style="endArrow=none;html=1;rounded=0;exitX=0;exitY=1;exitDx=0;exitDy=0;entryX=0.75;entryY=0;entryDx=0;entryDy=0;" parent="1" source="KayYWZ8XLClYaG1VSIAU-168" target="KayYWZ8XLClYaG1VSIAU-165" edge="1">
          <mxGeometry relative="1" as="geometry">
            <mxPoint x="540" y="420" as="sourcePoint" />
            <mxPoint x="700" y="420" as="targetPoint" />
          </mxGeometry>
        </mxCell>
        <mxCell id="KayYWZ8XLClYaG1VSIAU-171" value="" style="endArrow=none;html=1;rounded=0;exitX=0;exitY=0.5;exitDx=0;exitDy=0;entryX=0.5;entryY=1;entryDx=0;entryDy=0;" parent="1" source="KayYWZ8XLClYaG1VSIAU-165" edge="1">
          <mxGeometry relative="1" as="geometry">
            <mxPoint x="349" y="544.3899999999999" as="sourcePoint" />
            <mxPoint x="299" y="514.39" as="targetPoint" />
          </mxGeometry>
        </mxCell>
        <mxCell id="KayYWZ8XLClYaG1VSIAU-182" value="(0,N)" style="edgeLabel;html=1;align=center;verticalAlign=middle;resizable=0;points=[];" parent="KayYWZ8XLClYaG1VSIAU-171" vertex="1" connectable="0">
          <mxGeometry x="0.4069" relative="1" as="geometry">
            <mxPoint x="-4" y="11" as="offset" />
          </mxGeometry>
        </mxCell>
        <mxCell id="KayYWZ8XLClYaG1VSIAU-172" value="" style="endArrow=none;html=1;rounded=0;exitX=0.5;exitY=1;exitDx=0;exitDy=0;entryX=0.5;entryY=0;entryDx=0;entryDy=0;" parent="1" source="KayYWZ8XLClYaG1VSIAU-139" target="KayYWZ8XLClYaG1VSIAU-166" edge="1">
          <mxGeometry relative="1" as="geometry">
            <mxPoint x="540" y="420" as="sourcePoint" />
            <mxPoint x="700" y="420" as="targetPoint" />
          </mxGeometry>
        </mxCell>
        <mxCell id="KayYWZ8XLClYaG1VSIAU-181" value="(1,1)" style="edgeLabel;html=1;align=center;verticalAlign=middle;resizable=0;points=[];" parent="KayYWZ8XLClYaG1VSIAU-172" vertex="1" connectable="0">
          <mxGeometry x="0.084" y="-4" relative="1" as="geometry">
            <mxPoint as="offset" />
          </mxGeometry>
        </mxCell>
        <mxCell id="KayYWZ8XLClYaG1VSIAU-173" value="orario_richiesta" style="ellipse;whiteSpace=wrap;html=1;align=center;fontStyle=4" parent="1" vertex="1">
          <mxGeometry x="220" y="620" width="100" height="40" as="geometry" />
        </mxCell>
        <mxCell id="KayYWZ8XLClYaG1VSIAU-174" value="data_richiesta" style="ellipse;whiteSpace=wrap;html=1;align=center;fontStyle=4" parent="1" vertex="1">
          <mxGeometry x="300" y="650" width="100" height="40" as="geometry" />
        </mxCell>
        <mxCell id="KayYWZ8XLClYaG1VSIAU-175" value="" style="endArrow=none;html=1;rounded=0;exitX=0.5;exitY=0;exitDx=0;exitDy=0;entryX=0.75;entryY=1;entryDx=0;entryDy=0;" parent="1" source="KayYWZ8XLClYaG1VSIAU-174" target="KayYWZ8XLClYaG1VSIAU-165" edge="1">
          <mxGeometry relative="1" as="geometry">
            <mxPoint x="540" y="700" as="sourcePoint" />
            <mxPoint x="700" y="700" as="targetPoint" />
          </mxGeometry>
        </mxCell>
        <mxCell id="KayYWZ8XLClYaG1VSIAU-176" value="" style="endArrow=none;html=1;rounded=0;exitX=0.5;exitY=0;exitDx=0;exitDy=0;entryX=0.25;entryY=1;entryDx=0;entryDy=0;" parent="1" source="KayYWZ8XLClYaG1VSIAU-173" target="KayYWZ8XLClYaG1VSIAU-165" edge="1">
          <mxGeometry relative="1" as="geometry">
            <mxPoint x="540" y="700" as="sourcePoint" />
            <mxPoint x="700" y="700" as="targetPoint" />
          </mxGeometry>
        </mxCell>
        <mxCell id="KayYWZ8XLClYaG1VSIAU-180" value="(0,N)" style="text;html=1;align=center;verticalAlign=middle;resizable=0;points=[];autosize=1;strokeColor=none;fillColor=none;" parent="1" vertex="1">
          <mxGeometry x="485" y="468" width="50" height="30" as="geometry" />
        </mxCell>
        <mxCell id="KayYWZ8XLClYaG1VSIAU-183" value="relativa_a" style="shape=rhombus;perimeter=rhombusPerimeter;whiteSpace=wrap;html=1;align=center;" parent="1" vertex="1">
          <mxGeometry x="510" y="570" width="120" height="60" as="geometry" />
        </mxCell>
        <mxCell id="KayYWZ8XLClYaG1VSIAU-184" value="" style="endArrow=none;html=1;rounded=0;exitX=0;exitY=0.5;exitDx=0;exitDy=0;entryX=1;entryY=0.5;entryDx=0;entryDy=0;" parent="1" source="KayYWZ8XLClYaG1VSIAU-183" target="KayYWZ8XLClYaG1VSIAU-165" edge="1">
          <mxGeometry relative="1" as="geometry">
            <mxPoint x="590" y="510" as="sourcePoint" />
            <mxPoint x="750" y="510" as="targetPoint" />
          </mxGeometry>
        </mxCell>
        <mxCell id="KayYWZ8XLClYaG1VSIAU-185" value="" style="endArrow=none;html=1;rounded=0;entryX=1;entryY=0.5;entryDx=0;entryDy=0;exitX=0.25;exitY=0;exitDx=0;exitDy=0;shape=link;" parent="1" source="KayYWZ8XLClYaG1VSIAU-3" target="KayYWZ8XLClYaG1VSIAU-183" edge="1">
          <mxGeometry relative="1" as="geometry">
            <mxPoint x="590" y="510" as="sourcePoint" />
            <mxPoint x="750" y="510" as="targetPoint" />
          </mxGeometry>
        </mxCell>
        <mxCell id="KayYWZ8XLClYaG1VSIAU-186" value="(0,N)" style="text;html=1;align=center;verticalAlign=middle;resizable=0;points=[];autosize=1;strokeColor=none;fillColor=none;" parent="1" vertex="1">
          <mxGeometry x="475" y="558" width="50" height="30" as="geometry" />
        </mxCell>
        <mxCell id="KayYWZ8XLClYaG1VSIAU-187" value="(1,1)" style="text;html=1;align=center;verticalAlign=middle;resizable=0;points=[];autosize=1;strokeColor=none;fillColor=none;" parent="1" vertex="1">
          <mxGeometry x="595" y="568" width="50" height="30" as="geometry" />
        </mxCell>
        <mxCell id="L2wvslvrwQn2kC2j4qAq-1" value="iscrizione" style="rounded=1;whiteSpace=wrap;html=1;" vertex="1" parent="1">
          <mxGeometry x="960" y="640" width="70" height="35.61" as="geometry" />
        </mxCell>
        <mxCell id="L2wvslvrwQn2kC2j4qAq-2" value="accettazione" style="rounded=1;whiteSpace=wrap;html=1;" vertex="1" parent="1">
          <mxGeometry x="1090" y="640" width="70" height="35.61" as="geometry" />
        </mxCell>
        <mxCell id="L2wvslvrwQn2kC2j4qAq-3" value="pubblicazione" style="rounded=1;whiteSpace=wrap;html=1;" vertex="1" parent="1">
          <mxGeometry x="1200" y="640" width="70" height="40" as="geometry" />
        </mxCell>
        <mxCell id="L2wvslvrwQn2kC2j4qAq-6" value="d" style="ellipse;whiteSpace=wrap;html=1;aspect=fixed;" vertex="1" parent="1">
          <mxGeometry x="1099.3899999999999" y="568" width="41.22" height="41.22" as="geometry" />
        </mxCell>
        <mxCell id="L2wvslvrwQn2kC2j4qAq-8" value="" style="endArrow=none;html=1;rounded=0;exitX=0.25;exitY=0;exitDx=0;exitDy=0;entryX=1;entryY=1;entryDx=0;entryDy=0;" edge="1" parent="1" source="L2wvslvrwQn2kC2j4qAq-3" target="L2wvslvrwQn2kC2j4qAq-6">
          <mxGeometry relative="1" as="geometry">
            <mxPoint x="1290" y="610" as="sourcePoint" />
            <mxPoint x="1450" y="610" as="targetPoint" />
          </mxGeometry>
        </mxCell>
        <mxCell id="L2wvslvrwQn2kC2j4qAq-9" value="" style="endArrow=none;html=1;rounded=0;exitX=0.25;exitY=0;exitDx=0;exitDy=0;entryX=0.5;entryY=1;entryDx=0;entryDy=0;" edge="1" parent="1" source="L2wvslvrwQn2kC2j4qAq-2" target="L2wvslvrwQn2kC2j4qAq-6">
          <mxGeometry relative="1" as="geometry">
            <mxPoint x="1228" y="650" as="sourcePoint" />
            <mxPoint x="1145" y="613" as="targetPoint" />
          </mxGeometry>
        </mxCell>
        <mxCell id="L2wvslvrwQn2kC2j4qAq-10" value="" style="endArrow=none;html=1;rounded=0;exitX=0.75;exitY=0;exitDx=0;exitDy=0;entryX=0;entryY=1;entryDx=0;entryDy=0;" edge="1" parent="1" source="L2wvslvrwQn2kC2j4qAq-1" target="L2wvslvrwQn2kC2j4qAq-6">
          <mxGeometry relative="1" as="geometry">
            <mxPoint x="1118" y="650" as="sourcePoint" />
            <mxPoint x="1130" y="619" as="targetPoint" />
          </mxGeometry>
        </mxCell>
        <mxCell id="L2wvslvrwQn2kC2j4qAq-11" value="" style="endArrow=none;html=1;rounded=0;exitX=0.5;exitY=0;exitDx=0;exitDy=0;entryX=0.5;entryY=1;entryDx=0;entryDy=0;shape=link;" edge="1" parent="1" source="L2wvslvrwQn2kC2j4qAq-6" target="KayYWZ8XLClYaG1VSIAU-74">
          <mxGeometry relative="1" as="geometry">
            <mxPoint x="1290" y="610" as="sourcePoint" />
            <mxPoint x="1450" y="610" as="targetPoint" />
          </mxGeometry>
        </mxCell>
      </root>
    </mxGraphModel>
  </diagram>
</mxfile>
